<?xml version="1.0" encoding="UTF-8"?>
<svg xmlns="http://www.w3.org/2000/svg" version="1.1" width="200" height="100" viewBox="250 300 1500 450">
  <!-- Generator: Adobe Illustrator 30.0.0, SVG Export Plug-In . SVG Version: 2.1.1 Build 123)  -->
  <g id="Layer_12">
    <path id="a" fill="#fafafa" d="M1651.07,451.15c-72.12-.14-69.69,72.85-69.69,76.8h29.23c0-15.98,4.77-47.89,40.96-47.72,8.84.04,30.79,7.46,33.4,44.65,1.56,22.18-10.16,26.82-32.99,35.27-15.24,5.64-36.04,8.76-55.78,28.41-13.93,13.88-18.33,33.22-18.21,51.37.23,34.29,20.35,70.42,73.58,70.42,44.74,0,64.19-39.8,64.19-71.14,0-9.04-.1-107.58,0-111.26.69-25.87-11.17-76.69-64.69-76.8ZM1685.02,642.94c-.77,24.93-18.22,38.14-36.66,38.14-27.67,0-36.69-15.8-38.61-40-1.28-16.16,2.82-37.69,36.38-48.15,17.35-5.41,33.64-14.45,38.89-18.69,0,0,.68,46.51,0,68.69Z"/>
  </g>
  <g id="Layer_11">
    <path id="h" fill="#fafafa" d="M1414.38,327.14v383.01h30.96v-182.4c0-6.37-2.59-47.72,38.82-47.72,35.2,0,35.2,37.37,35.2,47.72v182.4h30.96v-182.4c0-5.95,7.76-76.8-67.98-76.8-26.92,0-37.01,19.18-37.01,15.79v-139.61h-30.96Z"/>
  </g>
  <g id="Layer_10">
    <path id="d" fill="#fafafa" d="M1314.37,451.43c26.96,0,41.52,16.24,41.52,16.43v-140.24h31.07v311.2c0,22.21-13.01,71.81-68.36,71.81s-66.15-49.6-66.15-69.18v-113.22c0-52.42,32.84-76.8,61.92-76.8ZM1282.76,646.18c0,10,9.82,34.43,38.06,35.18,20.69.55,35.07-17.41,35.07-35.18v-117.95s3-47.72-34.46-47.72-38.67,41.42-38.67,47.72v117.95Z"/>
  </g>
  <g id="Layer_9">
    <path id="b" fill="#fafafa" d="M1163.1,450.95c-26.96,0-41.52,16.24-41.52,16.43v-140.24h-31.07v311.2c0,22.21,13.01,71.81,68.36,71.81s66.15-49.6,66.15-69.18v-113.22c0-52.42-32.84-76.8-61.92-76.8ZM1194.71,645.7c0,10-9.82,34.43-38.06,35.18-20.69.55-35.07-17.41-35.07-35.18v-117.95s-3-47.72,34.46-47.72,38.67,41.42,38.67,47.72v117.95Z"/>
  </g>
  <g id="Layer_8">
    <path id="a1" data-name="a" fill="#fafafa" d="M998.36,450.95c-72.12-.14-69.69,72.85-69.69,76.8h29.23c0-15.98,4.77-47.89,40.96-47.72,8.84.04,30.79,7.46,33.4,44.65,1.56,22.18-10.16,26.82-32.99,35.27-15.24,5.64-36.04,8.76-55.78,28.41-13.93,13.88-18.33,33.22-18.21,51.37.23,34.29,20.35,70.42,73.58,70.42,44.74,0,64.19-39.8,64.19-71.14,0-9.04-.1-107.58,0-111.26.69-25.87-11.17-76.69-64.69-76.8ZM1032.41,645.7c-1.88,24.87-18.31,35.18-36.75,35.18-27.67,0-35.89-15.95-37.81-40.15-1.28-16.16,3.19-36.22,35.58-48,17.08-6.21,33.74-14.25,38.99-18.48,0,0,1.53,51.26,0,71.46Z"/>
  </g>
  <g id="Layer_7">
    <path id="h1" data-name="h" fill="#fafafa" d="M761.74,327.14v383.01h30.96v-182.4c0-6.37-2.59-47.72,38.82-47.72,35.2,0,35.2,37.37,35.2,47.72v182.4h30.96v-182.4c0-5.95,7.76-76.8-67.98-76.8-26.92,0-37.01,19.18-37.01,15.79v-139.61h-30.96Z"/>
  </g>
  <g id="Layer_6">
    <path id="s" fill="#fafafa" d="M702.88,645.88c-.06.84.24,35.01-39.67,35.01s-39.88-38.7-39.88-53.05h-30.26c0,58.68,30.26,82.32,71.73,82.32s69.59-29.27,69.59-72.96-29.3-63.96-62.71-72.69c-40.9-10.69-44.2-26.78-45.39-36.75s-2.96-47.72,36.62-47.72,37.59,42.95,37.59,47.72h30.12c0-47.72-23.6-76.8-68.35-76.8s-67.35,31.71-67.35,70.29c0,21.65,9.98,44.05,33.13,57.55,11.95,6.97,29.45,11.66,39.06,15.25,17.88,6.68,38.65,13.69,35.77,51.83Z"/>
  </g>
  <g id="Layer_5">
    <g id="i">
      <path id="I" fill="#fafafa" d="M534.46,450.95v259.2h31.25v-259.2h-31.25Z"/>
      <ellipse id="i_dot" fill="#fafafa" cx="550.05" cy="388.57" rx="20.4" ry="20.8"/>
    </g>
  </g>
  <g id="Layer_4">
    <path id="N" fill="#fafafa" d="M297.48,710.15v-314.32c0-7.99,0-68.69,59.48-68.69s59.94,62.63,59.94,68.69v255.74c0,2.67-.61,29.31,26.05,29.31s26.66-28.14,26.66-29.31v-324.43h31.29c0-.82,0,322.31,0,324.43s1.51,58.58-57.06,58.58-58.56-56.21-58.56-58.58v-255.74c0-14.12-1.07-37.94-28.4-37.94s-27.33,25.75-27.33,37.94v314.32h-32.07Z"/>
  </g>
</svg>
